<?xml version="1.0" encoding="UTF-8"?>
<svg width="64px" height="80px" viewBox="0 0 64 80" version="1.1" xmlns="http://www.w3.org/2000/svg" xmlns:xlink="http://www.w3.org/1999/xlink">
    <!-- Generator: Sketch 50.2 (55047) - http://www.bohemiancoding.com/sketch -->
    <title>noun_372397_cc</title>
    <desc>Created with Sketch.</desc>
    <defs></defs>
    <g id="Page-1" stroke="none" stroke-width="1" fill="none" fill-rule="evenodd">
        <g id="Artboard-2" transform="translate(-808.000000, -718.000000)" fill="#CCC4B8" fill-rule="nonzero">
            <g id="noun_372397_cc" transform="translate(808.000000, 718.000000)">
                <path d="M63.4568649,9.81098901 C63.1187027,9.41978022 54.9267027,0.228571429 32,0.228571429 C9.0732973,0.228571429 0.881297297,9.41978022 0.543135135,9.81098901 C0.267243243,10.130989 0.114162162,10.5432967 0.114162162,10.9696703 L0.114162162,55.5665934 C0.114162162,55.9481319 0.236972973,56.3182418 0.460972973,56.6232967 C0.767135135,57.0364835 8.20064865,66.8703297 31.1749189,79.5472527 C31.4326486,79.6887912 31.7163243,79.76 32,79.76 C32.2836757,79.76 32.5673514,79.6887912 32.8250811,79.5472527 C55.7984865,66.8703297 63.2328649,57.0364835 63.539027,56.6232967 C63.7647568,56.3182418 63.8858378,55.9472527 63.8858378,55.5665934 L63.8858378,10.9705495 C63.8858378,10.5432967 63.7327568,10.130989 63.4568649,9.81098901 Z M32,75.9991209 C13.0490811,65.4224176 5.23156757,56.9028571 3.57362162,54.9371429 L3.57362162,11.7125275 C5.4547027,10.0061538 13.6095135,3.74505495 32,3.74505495 C50.4060541,3.74505495 58.56,10.0167033 60.4263784,11.7116484 L60.4263784,54.9397802 C58.7796757,56.9046154 51.0374054,65.3758242 32,75.9991209 Z M49.9139459,9.92 C51.0728649,10.3226374 52.1029189,10.7402198 53.0032432,11.1551648 L53.0023784,29.7934066 C52.3001081,27.6404396 51.2717838,25.5745055 49.9130811,23.6782418 L49.9139459,9.92 Z M53.0015135,57.4127473 C52.1124324,58.1978022 51.0771892,59.0681319 49.9122162,60.0026374 L49.9122162,50.167033 C51.2709189,48.2707692 52.2992432,46.2048352 53.0023784,44.0527473 L53.0015135,57.4127473 Z M40.0302703,67.0901099 C39.0944865,67.6967033 38.1197838,68.3156044 37.0966486,68.9468132 C36.9997838,68.7410989 36.9401081,68.5134066 36.9401081,68.2698901 L36.9401081,58.8720879 C37.9952432,58.6294505 39.027027,58.3076923 40.0294054,57.9120879 L40.0294054,67.0901099 L40.0302703,67.0901099 Z M36.940973,7.43120879 C38.0203243,7.50593407 39.0443243,7.60791209 40.0302703,7.72571429 L40.0302703,15.9323077 C39.0278919,15.5367033 37.9952432,15.2158242 36.940973,14.9723077 L36.940973,7.43120879 Z M23.9697297,7.72659341 C24.9565405,7.60791209 25.9788108,7.50593407 27.0572973,7.43120879 L27.0572973,14.9723077 C26.003027,15.2158242 24.9712432,15.5367033 23.9697297,15.9331868 L23.9697297,7.72659341 Z M27.0572973,58.8720879 L27.0572973,68.2707692 C27.0572973,68.5125275 26.9993514,68.7402198 26.9024865,68.9450549 C25.8793514,68.312967 24.9046486,67.6931868 23.9688649,67.0857143 L23.9688649,57.9112088 C24.9712432,58.3068132 26.003027,58.6276923 27.0572973,58.8720879 Z M14.0860541,59.9868132 C12.9219459,59.0531868 11.8867027,58.181978 10.9967568,57.3969231 L10.9976216,44.050989 C11.7007568,46.2030769 12.7282162,48.269011 14.0860541,50.1652747 L14.0860541,59.9868132 Z M10.9976216,29.7934066 L10.9984865,11.1569231 C11.8979459,10.7410989 12.9288649,10.3243956 14.0860541,9.92263736 L14.0860541,23.68 C12.7282162,25.5753846 11.7007568,27.6404396 10.9976216,29.7934066 Z M13.5541622,43.5235165 C16.3848649,51.6949451 23.936,56.8061538 32.0008649,56.8061538 C34.1561081,56.8061538 36.3459459,56.4421978 38.4951351,55.672967 C48.6823784,52.0281319 54.0341622,40.6769231 50.4475676,30.3208791 C47.6177297,22.1494505 40.0665946,17.0391209 32.0017297,17.0391209 C29.8464865,17.0391209 27.6557838,17.403956 25.5065946,18.1723077 C15.3193514,21.8189011 9.96843243,33.1692308 13.5541622,43.5235165 Z M16.1522162,38.458022 C16.8622703,39.010989 18.0281081,38.9459341 18.7234595,38.2734066 C19.5935135,37.4276923 20.5059459,36.5564835 21.452973,35.6685714 C22.2028108,34.9661538 22.5254054,33.5630769 22.1552432,32.5837363 C21.6890811,31.3468132 21.2419459,30.1327473 20.8164324,28.9520879 C20.5189189,28.1292308 19.6774054,27.5446154 18.8583784,27.5112088 C20.6650811,24.8958242 23.232,22.7964835 26.3818378,21.6026374 C26.0981622,22.4386813 26.4345946,23.5243956 27.2025946,24.050989 C28.2698378,24.7806593 29.3708108,25.5428571 30.4934054,26.3340659 C31.340973,26.9345055 32.7636757,26.9397802 33.6216216,26.3498901 C34.7563243,25.5683516 35.8702703,24.8167033 36.9504865,24.0967033 C37.7236757,23.5797802 38.0756757,22.509011 37.8153514,21.672967 C40.8345946,22.8659341 43.4490811,24.9679121 45.2895135,27.7072527 C44.5915676,27.8575824 43.9316757,28.3806593 43.6687568,29.0813187 C43.2294054,30.2575824 42.771027,31.4654945 42.291027,32.6962637 C41.9104865,33.672967 42.2166486,35.0786813 42.9612973,35.789011 C43.8988108,36.6865934 44.8025946,37.5683516 45.664,38.4246154 C46.2771892,39.0294505 47.2665946,39.1551648 47.9827027,38.792967 C47.7803243,40.5731868 47.3020541,42.3287912 46.5176216,43.9938462 C46.1388108,44.7973626 45.6882162,45.549011 45.1987027,46.2663736 C44.9029189,45.4294505 44.0060541,44.7841758 43.0884324,44.8246154 C41.7989189,44.8826374 40.4627027,44.9283516 39.0970811,44.9617582 C38.0635676,44.9863736 36.9098378,45.8118681 36.5552432,46.7674725 C36.0847568,48.0307692 35.6151351,49.2430769 35.1558919,50.3806593 C34.8099459,51.2474725 35.1844324,52.3076923 35.9515676,52.7718681 C35.955027,52.7745055 35.9593514,52.7762637 35.9628108,52.7789011 C34.6646486,53.1156044 33.3388108,53.2887912 32.0034595,53.2887912 C30.592,53.2887912 29.2151351,53.0901099 27.8936216,52.7340659 C27.8979459,52.7314286 27.9014054,52.7296703 27.9048649,52.727033 C28.6754595,52.269011 29.0568649,51.2131868 28.716973,50.3410989 C28.2663784,49.1947253 27.8062703,47.9762637 27.3487568,46.7050549 C27.0028108,45.7459341 25.8603243,44.9054945 24.832,44.8676923 C23.4724324,44.8158242 22.144,44.7525275 20.864,44.6778022 C19.9282162,44.6232967 19.008,45.2896703 18.7312432,46.1573626 C17.9476757,44.996044 17.2947027,43.7257143 16.8198919,42.3542857 C16.3589189,41.0215385 16.0968649,39.6685714 15.9835676,38.3226374 C16.0406486,38.3692308 16.0925405,38.4123077 16.1522162,38.458022 Z M25.9476757,36.7832967 C25.6233514,35.7353846 26.0678919,34.3534066 26.9388108,33.7063736 C28.0916757,32.8501099 29.2618378,31.992967 30.4302703,31.1472527 C31.3132973,30.5081319 32.7481081,30.516044 33.6233514,31.163956 C34.7822703,32.021978 35.9446486,32.8914286 37.0914595,33.7608791 C37.9589189,34.4175824 38.3887568,35.8057143 38.0523243,36.8518681 C37.6060541,38.2364835 37.1494054,39.6228571 36.6884324,40.9898901 C36.3398919,42.0246154 35.1775135,42.8624176 34.1016216,42.8624176 C32.6780541,42.8632967 31.244973,42.8545055 29.824,42.8351648 C28.7481081,42.8202198 27.5978378,41.9683516 27.2605405,40.930989 C26.8151351,39.5586813 26.3749189,38.1696703 25.9476757,36.7832967 Z" id="Shape"></path>
            </g>
        </g>
    </g>
</svg>